<?xml version="1.0" encoding="utf-8"?>
<!-- Generator: Adobe Illustrator 27.5.0, SVG Export Plug-In . SVG Version: 6.00 Build 0)  -->
<svg version="1.1" id="Capa_2" xmlns="http://www.w3.org/2000/svg" xmlns:xlink="http://www.w3.org/1999/xlink" x="0px" y="0px"
	 viewBox="0 0 2122 2122" style="enable-background:new 0 0 2122 2122;" xml:space="preserve">
<g>
	<g>
		<g>
			<path style="fill:#E0569A;" d="M1597.949,401.582c-93.258-79.914-979.332-79.914-1072.59,0
				c-35.434,30.367,59.301,506.637,110.766,701.512c10.832-2.516,21.738-4.832,32.676-7.07
				c-47.144-174.43-139.047-632.867-105.516-661.598c86.656-74.262,910.082-74.262,996.738,0
				c33.559,28.754-58.508,487.848-105.621,661.984c10.938,2.25,21.832,4.602,32.664,7.137
				C1538.5,908.961,1633.406,431.973,1597.949,401.582z"/>
			<path style="fill:#E0569A;" d="M1062.578,1353.363l-0.922-0.375l-0.926,0.375c-56.656,0.008-153.348-47.328-233.98-95.629
				c-17.231,2.809-34.387,5.863-51.391,9.156c91.891,58.188,216.238,123.566,285.301,123.551l0.996-0.402l0.996,0.402
				c68.941,0.016,192.98-65.133,284.824-123.25c-16.988-3.309-34.125-6.379-51.344-9.199
				C1215.578,1306.199,1119.133,1353.371,1062.578,1353.363z"/>
		</g>
		<g>
			<path style="fill:#D4D4D4;" d="M1062.516,1318.902l-0.859-0.352l-0.863,0.352c-44.699,0.008-116.23-31.715-182.672-68.762
				c-17.16,2.262-34.305,4.805-51.371,7.594c80.633,48.301,177.324,95.637,233.98,95.629l0.926-0.375l0.922,0.375
				c56.555,0.008,153-47.164,233.555-95.371c-17.047-2.801-34.172-5.363-51.32-7.644
				C1178.48,1287.305,1107.137,1318.91,1062.516,1318.902z"/>
			<path style="fill:#D4D4D4;" d="M1560.023,434.426c-86.656-74.262-910.082-74.262-996.738,0
				c-33.531,28.73,58.371,487.168,105.516,661.598c10.184-2.078,20.391-4.063,30.621-5.918
				c-42.816-153.391-132.746-597.867-100.898-625.16c80.531-69.012,845.731-69.012,926.262,0
				c31.879,27.316-58.223,472.457-101.004,625.512c10.234,1.871,20.445,3.852,30.621,5.953
				C1501.516,922.273,1593.582,463.18,1560.023,434.426z"/>
			<path style="fill:#D4D4D4;" d="M1302.258,527.781c-107.648-79.75-170.984-19.82-197.504,15.984
				c-16.691,22.523-38.824,96.809-36.484,161.039l-22.242,125.793l-1.551-1.148c-1.125-0.836-2.574-1.027-3.883-0.504
				c-1.305,0.519-2.23,1.656-2.48,3.039l-1.5,8.504l-0.426,0.77c-31.356,56.394-59.695,90.141-77.75,92.59
				c-3.25,0.445-6.637,0.074-9.938-0.285c-6.594-0.715-14.805-1.606-20.434,6c-7.82,10.547-5.594,25.496,4.953,33.313l10.594,7.848
				c-1.012,3.09-1.961,6.199-2.813,9.313c-2.379,8.754-4.152,17.383-5.363,24.711c-1.82,10.977-2.801,22.32-2.801,33.691
				c0,5.195,0.285,10.383,0.711,15.559c8.77-0.461,17.379-0.859,25.867-1.215c-0.422-4.73-0.699-9.516-0.699-14.344
				c0-9.871,0.863-19.84,2.461-29.461c0.422-2.598,0.949-5.43,1.543-8.356c0.547,2.246,1.149,4.434,1.867,6.504
				c2.191,6.336,5.035,11.848,7.77,16.563c5.754,9.863,11.715,18.855,16.789,28.02c9.832-0.285,19.344-0.488,28.66-0.652
				c-0.32-0.699-0.625-1.422-0.953-2.109c-6.988-14.656-15.414-26.664-22.109-38.254c-1.231-2.117-2.367-4.305-3.41-6.531
				c9.402,2.922,20.02-0.109,26.207-8.461c5.633-7.602,2.387-15.195-0.223-21.316c-1.293-3.031-2.633-6.168-3.156-9.402
				c-1.594-9.84,4.926-25.383,18.449-45.02c0.383-0.434,0.727-0.918,0.988-1.465c11.145-15.926,26.805-34.48,46.484-54.863
				l0.613-0.633l7.586-3.863c0.609-0.273,1.121-0.695,1.527-1.246c1.324-1.785,0.953-4.313-0.844-5.637l-1.551-1.141l113.855-57.922
				c62.129-16.469,126.742-59.289,143.434-81.813C1371.023,685.578,1411.535,608.734,1302.258,527.781z"/>
		</g>
		<g>
			<path style="fill:#003F6D;" d="M878.121,1250.141c66.441,37.047,137.973,68.77,182.672,68.762l0.863-0.352l0.859,0.352
				c44.621,0.008,115.965-31.598,182.297-68.555c-62.145-8.254-124.531-12.949-184.152-12.949
				C1001.555,1237.398,939.734,1242.016,878.121,1250.141z"/>
			<path style="fill:#003F6D;" d="M1524.785,464.945c-80.531-69.012-845.73-69.012-926.262,0
				c-31.848,27.293,58.082,471.769,100.898,625.16c80.324-14.555,161.488-22.289,233.926-26.109
				c-0.426-5.176-0.711-10.363-0.711-15.559c0-11.371,0.981-22.715,2.801-33.691c1.211-7.328,2.984-15.957,5.363-24.711
				c0.852-3.113,1.801-6.223,2.813-9.313l-10.594-7.848c-10.547-7.816-12.773-22.766-4.953-33.313c5.629-7.606,13.84-6.715,20.434-6
				c3.301,0.359,6.688,0.731,9.938,0.285c18.055-2.449,46.394-36.195,77.75-92.59l0.426-0.77l1.5-8.504
				c0.25-1.383,1.176-2.52,2.48-3.039c1.309-0.523,2.758-0.332,3.883,0.504l1.551,1.148l22.242-125.793
				c-2.34-64.23,19.793-138.516,36.484-161.039c26.52-35.805,89.855-95.734,197.504-15.984
				c109.277,80.953,68.766,157.797,42.246,193.598c-16.691,22.523-81.305,65.344-143.434,81.813l-113.855,57.922l1.551,1.141
				c1.797,1.324,2.168,3.852,0.844,5.637c-0.406,0.551-0.918,0.973-1.527,1.246l-7.586,3.863l-0.613,0.633
				c-19.68,20.383-35.34,38.938-46.484,54.863c-0.262,0.547-0.605,1.031-0.988,1.465c-13.523,19.637-20.043,35.18-18.449,45.02
				c0.523,3.234,1.863,6.371,3.156,9.402c2.609,6.121,5.856,13.715,0.223,21.316c-6.188,8.352-16.805,11.383-26.207,8.461
				c1.043,2.227,2.18,4.414,3.41,6.531c6.695,11.59,15.121,23.598,22.109,38.254c0.328,0.688,0.633,1.41,0.953,2.109
				c15.082-0.262,29.535-0.395,43.055-0.395c94.418,0,230.094,5.508,363.121,29.797
				C1466.563,937.402,1556.664,492.262,1524.785,464.945z"/>
			<path style="fill:#003F6D;" d="M972.156,1033.688c-2.734-4.715-5.578-10.227-7.77-16.563c-0.719-2.07-1.32-4.258-1.867-6.504
				c-0.594,2.926-1.121,5.758-1.543,8.356c-1.598,9.621-2.461,19.59-2.461,29.461c0,4.828,0.277,9.613,0.699,14.344
				c10.102-0.422,20.066-0.789,29.73-1.074C983.871,1052.543,977.91,1043.551,972.156,1033.688z"/>
			<path style="fill:#003F6D;" d="M1620.754,1345.008c-82.379,30.34-160.203,30.199-190.262,54.27l0,0
				c45.293,41.508,145.688,76.672,232.445,106.852c57.543-18.797,105.938-37.176,121.574-61.859
				C1760.672,1411.906,1700.926,1376.879,1620.754,1345.008z"/>
			<path style="fill:#003F6D;" d="M336.813,1444.27c14.992,22.215,65.699,40.492,125.73,60.414
				c85.789-29.859,183.715-64.559,228.285-105.406l0,0c-30.059-24.07-107.879-23.922-190.266-54.27
				C420.395,1376.883,360.648,1411.906,336.813,1444.27z"/>
		</g>
		<g>
			<path style="fill:#3878BD;" d="M1698.129,1607.313c33.898-36.027,74.18-36.695,116.23-27.977
				c0-20.734-69.652-44.758-151.422-73.207c-86.758-30.18-187.152-65.344-232.445-106.852v208.035l0,0
				c50.156,40.16,233.266,12.785,348.688,172.363C1779.18,1726.434,1750.934,1651.766,1698.129,1607.313z"/>
			<path style="fill:#3878BD;" d="M306.961,1579.336c42.051-8.719,82.332-8.051,116.23,27.977
				c-52.801,44.453-81.055,119.121-81.055,172.363c115.43-159.578,298.535-132.203,348.691-172.363l0,0v-208.035
				c-44.57,40.848-142.496,75.547-228.285,105.406C378.992,1533.766,306.961,1558.25,306.961,1579.336z"/>
			<path style="fill:#3878BD;" d="M1784.512,1444.27c24.066-92.324-1.234-206.977-54.836-243.352
				c-66.742-45.289-152.395-76.285-242.609-97.371c-10.832-2.535-21.727-4.887-32.664-7.137
				c-10.176-2.102-20.387-4.082-30.621-5.953c-133.027-24.289-268.703-29.797-363.121-29.797c-13.52,0-27.973,0.133-43.055,0.395
				c-9.316,0.164-18.828,0.367-28.66,0.652c-9.664,0.285-19.629,0.652-29.73,1.074c-8.488,0.355-17.098,0.754-25.867,1.215
				c-72.438,3.82-153.602,11.555-233.926,26.109c-10.23,1.855-20.438,3.84-30.621,5.918c-10.938,2.238-21.844,4.555-32.676,7.07
				c-90.906,21.098-177.273,52.223-244.477,97.824c-53.605,36.375-78.902,151.027-54.836,243.352
				c23.836-32.363,83.582-67.387,163.75-99.262c77.227-30.699,173.406-58.48,274.797-78.117c17.004-3.293,34.16-6.348,51.391-9.156
				c17.066-2.789,34.211-5.332,51.371-7.594c61.613-8.125,123.434-12.742,182.539-12.742c59.621,0,122.008,4.695,184.152,12.949
				c17.148,2.281,34.273,4.844,51.32,7.644c17.219,2.82,34.355,5.891,51.344,9.199c100.836,19.617,196.441,47.262,273.277,77.816
				C1700.926,1376.879,1760.672,1411.906,1784.512,1444.27z"/>
		</g>
	</g>
	<g>
		<path style="fill:#E0E0E0;" d="M665.883,546.285c-0.262-4.125-3.813-7.258-7.938-6.996c-4.125,0.258-7.258,3.813-7,7.938
			c9.051,143.656,38.246,284.672,68.871,420.246c0.914,4.031,4.918,6.558,8.945,5.648c4.035-0.906,6.563-4.914,5.652-8.945
			C703.824,828.785,674.836,688.539,665.883,546.285z"/>
		<path style="fill:#E0E0E0;" d="M817.785,461.578c-39.492,4.273-80.074,9.211-119.016,20.66c-3.965,1.168-6.23,5.328-5.066,9.293
			c1.164,3.965,5.324,6.234,9.293,5.066c37.34-10.992,77.051-15.895,116.398-20.141c4.106-0.445,7.078-4.133,6.633-8.246
			C825.586,464.102,821.894,461.133,817.785,461.578z"/>
		<path style="fill:#E0E0E0;" d="M980.07,489.172c3.965-2.297,7.52-4.598,10.668-6.852c-5.141-1.02-10.324-1.547-15.488-1.547
			c-10.008,0-19.961,1.91-29.481,5.711c-14.43,5.766-26.551,15.383-35.426,27.941c11.563-1.633,26.344-5.637,41.848-11.836
			C962.578,498.445,972.07,493.82,980.07,489.172z"/>
		<path style="fill:#E0E0E0;" d="M1001.113,625.57c-10.387,4.141-19.879,8.766-27.879,13.414c-4.055,2.348-7.684,4.707-10.883,7.004
			c5.176,1.035,10.391,1.566,15.598,1.566c10.059-0.004,20.07-1.922,29.649-5.746c14.508-5.797,26.707-15.477,35.633-28.117
			c-11.609,1.609-26.484,5.633-42.113,11.879H1001.113z"/>
		<polygon style="fill:#E0E0E0;" points="955.328,640.066 955.324,640.07 955.32,640.074 		"/>
		<path style="fill:#E0E0E0;" d="M1054.391,533.047c-9.246-23.156-28.137-40.816-51.867-48.535
			c-1.391,1.188-2.855,2.367-4.387,3.512c-10.758,8.047-25.859,16.09-42.66,22.805c-10.305,4.113-20.801,7.512-30.391,9.832
			c-8.148,1.973-15.434,3.141-21.734,3.48l-0.203,0.18c-6.684,12.394-10.074,26.019-10.074,39.703
			c0,10.488,1.981,21.004,5.988,31.027c9.238,23.16,28.137,40.82,51.863,48.539l0.012-0.004c1.379-1.188,2.848-2.375,4.387-3.516
			c10.754-8.043,25.844-16.086,42.645-22.801c10.316-4.117,20.813-7.512,30.406-9.836c8.156-1.977,15.441-3.141,21.734-3.484
			l0.191-0.164c6.688-12.402,10.074-26.027,10.074-39.711C1060.375,553.586,1058.391,543.066,1054.391,533.047z"/>
	</g>
	<g>
		<path style="fill:#E0E0E0;" d="M1705.465,1665.09c-8.121-6.465-17.527-11.453-26.723-16.023c-3.703-1.832-8.195-0.32-10.027,3.383
			c-1.836,3.703-0.32,8.195,3.383,10.031c8.902,4.398,17.441,9.035,24.035,14.313c3.227,2.578,7.934,2.047,10.516-1.184
			C1709.227,1672.379,1708.695,1667.668,1705.465,1665.09z"/>
		<path style="fill:#E0E0E0;" d="M1645.531,1635.641L1645.531,1635.641c-25.203-11.707-54.789-18.383-85.254-25.063
			c-30.461-6.645-61.805-13.254-90.305-24.191c-3.855-1.48-8.188,0.449-9.664,4.309c-1.48,3.859,0.449,8.188,4.309,9.664
			c30.031,11.508,62.086,18.199,92.465,24.844c30.379,6.621,59.07,13.246,82.129,24.012c3.746,1.742,8.199,0.113,9.945-3.625
			C1650.898,1641.836,1649.277,1637.387,1645.531,1635.641z"/>
		<path style="fill:#E0E0E0;" d="M442.578,1649.066c-9.191,4.57-18.602,9.559-26.723,16.023c-3.23,2.578-3.762,7.289-1.184,10.52
			c2.578,3.23,7.289,3.762,10.52,1.184c6.59-5.277,15.133-9.914,24.031-14.316c3.703-1.832,5.219-6.324,3.383-10.027
			C450.77,1648.746,446.281,1647.234,442.578,1649.066z"/>
		<path style="fill:#E0E0E0;" d="M651.348,1586.387c-28.504,10.938-59.844,17.547-90.309,24.191
			c-30.465,6.68-60.051,13.355-85.25,25.063c-3.75,1.742-5.371,6.195-3.629,9.949c1.746,3.738,6.199,5.367,9.945,3.625l0,0
			c23.063-10.766,51.758-17.391,82.129-24.012c30.383-6.645,62.441-13.336,92.473-24.844c3.856-1.48,5.785-5.805,4.305-9.664
			C659.531,1586.836,655.203,1584.906,651.348,1586.387z"/>
		<path style="fill:#E0E0E0;" d="M1612.176,1178.855c1.156-3.969-1.125-8.121-5.09-9.277
			c-202.715-59.02-390.711-81.977-558.008-81.973c-150.082,0-283.5,18.469-395.988,45.949c-4.016,0.984-6.473,5.027-5.488,9.047
			c0.977,4.016,5.027,6.469,9.047,5.492h-0.008c111.344-27.199,243.586-45.52,392.438-45.52c165.926,0,352.492,22.762,553.82,81.371
			C1606.863,1185.102,1611.02,1182.82,1612.176,1178.855z"/>
		<path style="fill:#E0E0E0;" d="M516.93,1191.453c3.852-1.504,5.75-5.848,4.246-9.695c-1.508-3.848-5.852-5.75-9.695-4.238
			c-44.613,17.461-83.176,36.883-114.723,57.738c-3.445,2.285-4.391,6.922-2.109,10.371c2.277,3.453,6.922,4.391,10.367,2.117l0,0
			C435.441,1227.617,473.105,1208.609,516.93,1191.453z"/>
	</g>
	<g>
		<path style="fill:#003F6D;" d="M1104.102,795.258c-6.57-4.867-12.082-10.914-16.676-17.859l-9.332,50.301l2.555,1.891
			l45.398-23.578C1118.066,803.641,1110.676,800.133,1104.102,795.258z"/>
		<path style="fill:#003F6D;" d="M1103.254,642.238c3.301,2.117,4.262,6.508,2.145,9.813c-2.121,3.301-6.508,4.258-9.813,2.145
			c-3.297-2.121-4.262-6.512-2.145-9.813C1095.563,641.082,1099.953,640.121,1103.254,642.238z"/>
		<path style="fill:#003F6D;" d="M1124.77,608.691c3.297,2.117,4.258,6.516,2.145,9.816c-2.121,3.301-6.516,4.258-9.816,2.141
			c-3.301-2.117-4.254-6.512-2.141-9.813C1117.078,607.535,1121.465,606.582,1124.77,608.691z"/>
		<path style="fill:#003F6D;" d="M1146.285,575.148c3.301,2.117,4.258,6.512,2.145,9.809c-2.121,3.309-6.516,4.262-9.82,2.149
			c-3.301-2.113-4.262-6.508-2.137-9.813C1138.59,573.996,1142.977,573.031,1146.285,575.148z"/>
		<path style="fill:#003F6D;" d="M1167.793,541.609c3.301,2.113,4.266,6.508,2.141,9.809c-2.113,3.301-6.504,4.254-9.813,2.141
			c-3.305-2.117-4.25-6.508-2.133-9.809C1160.102,540.445,1164.488,539.484,1167.793,541.609z"/>
		<path style="fill:#003F6D;" d="M1129.109,658.816c3.305,2.121,4.258,6.512,2.145,9.813c-2.125,3.301-6.508,4.262-9.816,2.148
			c-3.301-2.121-4.254-6.504-2.145-9.813C1121.414,657.664,1125.813,656.707,1129.109,658.816z"/>
		<path style="fill:#003F6D;" d="M1150.621,625.277c3.305,2.117,4.262,6.512,2.145,9.813c-2.121,3.301-6.504,4.258-9.813,2.137
			c-3.301-2.113-4.258-6.508-2.145-9.809C1142.926,624.121,1147.316,623.16,1150.621,625.277z"/>
		<path style="fill:#003F6D;" d="M1172.129,591.734c3.305,2.113,4.27,6.508,2.152,9.809c-2.121,3.301-6.512,4.262-9.809,2.148
			c-3.305-2.121-4.266-6.516-2.148-9.816C1164.438,590.578,1168.836,589.613,1172.129,591.734z"/>
		<path style="fill:#003F6D;" d="M1193.645,558.188c3.305,2.121,4.266,6.512,2.148,9.809c-2.113,3.301-6.508,4.266-9.813,2.141
			c-3.297-2.113-4.262-6.504-2.141-9.805C1185.957,557.027,1190.348,556.074,1193.645,558.188z"/>
		<path style="fill:#003F6D;" d="M1133.457,708.949c3.297,2.117,4.258,6.508,2.145,9.809c-2.121,3.305-6.516,4.262-9.82,2.148
			c-3.297-2.117-4.25-6.516-2.137-9.816C1125.762,707.785,1130.152,706.828,1133.457,708.949z"/>
		<path style="fill:#003F6D;" d="M1107.605,692.363c3.293,2.117,4.25,6.516,2.137,9.816c-2.121,3.297-6.508,4.254-9.816,2.141
			c-3.301-2.117-4.258-6.512-2.145-9.809C1099.902,691.207,1104.293,690.254,1107.605,692.363z"/>
		<path style="fill:#003F6D;" d="M1154.965,675.402c3.297,2.117,4.266,6.508,2.141,9.809c-2.109,3.305-6.504,4.266-9.809,2.145
			c-3.297-2.113-4.262-6.504-2.137-9.809C1147.27,674.246,1151.668,673.285,1154.965,675.402z"/>
		<path style="fill:#003F6D;" d="M1176.477,641.859c3.305,2.117,4.258,6.512,2.145,9.813c-2.121,3.301-6.512,4.258-9.809,2.141
			c-3.305-2.117-4.258-6.512-2.148-9.809C1168.777,640.699,1173.172,639.75,1176.477,641.859z"/>
		<path style="fill:#003F6D;" d="M1197.996,608.316c3.293,2.113,4.254,6.508,2.141,9.809c-2.117,3.301-6.504,4.262-9.813,2.144
			c-3.301-2.117-4.258-6.508-2.145-9.813C1190.297,607.16,1194.691,606.195,1197.996,608.316z"/>
		<path style="fill:#003F6D;" d="M1219.496,574.773c3.305,2.113,4.273,6.504,2.156,9.809c-2.121,3.305-6.512,4.262-9.813,2.141
			c-3.305-2.113-4.262-6.512-2.145-9.813C1211.813,573.609,1216.203,572.656,1219.496,574.773z"/>
		<path style="fill:#003F6D;" d="M1241.023,541.223c3.293,2.121,4.25,6.512,2.141,9.816c-2.117,3.301-6.512,4.258-9.813,2.144
			c-3.301-2.117-4.266-6.508-2.148-9.813C1233.324,540.066,1237.719,539.109,1241.023,541.223z"/>
		<path style="fill:#003F6D;" d="M1215.16,524.641c3.305,2.121,4.266,6.516,2.141,9.813c-2.109,3.301-6.504,4.262-9.805,2.145
			c-3.297-2.113-4.258-6.512-2.145-9.813C1207.469,523.484,1211.863,522.527,1215.16,524.641z"/>
		<path style="fill:#003F6D;" d="M1159.301,725.531c3.305,2.113,4.266,6.508,2.152,9.809c-2.121,3.305-6.512,4.266-9.813,2.145
			c-3.305-2.121-4.266-6.508-2.148-9.816C1151.621,724.371,1156.004,723.414,1159.301,725.531z"/>
		<path style="fill:#003F6D;" d="M1180.816,691.984c3.305,2.117,4.266,6.508,2.148,9.809c-2.121,3.309-6.508,4.266-9.813,2.144
			c-3.297-2.113-4.266-6.508-2.141-9.809C1173.125,690.828,1177.52,689.867,1180.816,691.984z"/>
		<path style="fill:#003F6D;" d="M1202.332,658.445c3.301,2.113,4.27,6.508,2.145,9.809c-2.121,3.301-6.504,4.262-9.809,2.141
			c-3.301-2.117-4.258-6.512-2.145-9.813C1194.641,657.285,1199.035,656.328,1202.332,658.445z"/>
		<path style="fill:#003F6D;" d="M1223.848,624.894c3.305,2.125,4.262,6.512,2.145,9.809c-2.113,3.305-6.504,4.266-9.809,2.145
			c-3.305-2.113-4.262-6.504-2.148-9.805C1216.148,623.742,1220.551,622.777,1223.848,624.894z"/>
		<path style="fill:#003F6D;" d="M1245.363,591.352c3.297,2.121,4.262,6.512,2.145,9.813c-2.125,3.297-6.504,4.262-9.813,2.144
			c-3.305-2.121-4.258-6.516-2.145-9.813C1237.664,590.191,1242.055,589.234,1245.363,591.352z"/>
		<path style="fill:#003F6D;" d="M1266.871,557.809c3.305,2.121,4.262,6.504,2.145,9.813c-2.113,3.301-6.508,4.262-9.805,2.145
			c-3.305-2.117-4.27-6.512-2.148-9.813C1259.18,556.652,1263.574,555.691,1266.871,557.809z"/>
		<path style="fill:#003F6D;" d="M1185.168,742.113c3.293,2.113,4.258,6.504,2.141,9.809c-2.121,3.305-6.516,4.258-9.813,2.141
			c-3.305-2.109-4.266-6.504-2.141-9.809C1177.469,740.949,1181.859,739.992,1185.168,742.113z"/>
		<path style="fill:#003F6D;" d="M1211.02,758.695c3.297,2.117,4.258,6.504,2.145,9.813c-2.121,3.301-6.512,4.262-9.809,2.141
			c-3.309-2.113-4.262-6.508-2.148-9.816C1203.328,757.535,1207.715,756.574,1211.02,758.695z"/>
		<path style="fill:#003F6D;" d="M1206.68,708.566c3.293,2.121,4.258,6.512,2.137,9.809c-2.117,3.305-6.504,4.262-9.805,2.148
			c-3.305-2.117-4.266-6.512-2.148-9.813C1198.98,707.41,1203.375,706.449,1206.68,708.566z"/>
		<path style="fill:#003F6D;" d="M1228.195,675.027c3.293,2.113,4.25,6.508,2.133,9.805c-2.113,3.305-6.504,4.266-9.805,2.145
			c-3.301-2.117-4.266-6.508-2.141-9.813C1220.492,673.867,1224.887,672.91,1228.195,675.027z"/>
		<path style="fill:#003F6D;" d="M1249.699,641.481c3.297,2.113,4.27,6.504,2.148,9.809c-2.121,3.301-6.516,4.258-9.809,2.141
			c-3.301-2.113-4.266-6.504-2.148-9.809C1242.008,640.32,1246.402,639.363,1249.699,641.481z"/>
		<path style="fill:#003F6D;" d="M1271.215,607.934c3.301,2.121,4.266,6.516,2.148,9.813c-2.121,3.305-6.52,4.254-9.813,2.148
			c-3.301-2.121-4.262-6.516-2.145-9.82C1263.527,606.777,1267.914,605.82,1271.215,607.934z"/>
		<path style="fill:#003F6D;" d="M1292.734,574.387c3.293,2.121,4.258,6.512,2.145,9.809c-2.125,3.305-6.52,4.266-9.813,2.148
			c-3.301-2.113-4.258-6.508-2.148-9.808C1285.035,573.234,1289.43,572.281,1292.734,574.387z"/>
		<path style="fill:#003F6D;" d="M1318.586,590.973c3.293,2.117,4.258,6.508,2.145,9.813c-2.117,3.301-6.512,4.258-9.813,2.144
			c-3.301-2.125-4.266-6.508-2.148-9.813C1310.887,589.816,1315.285,588.856,1318.586,590.973z"/>
		<path style="fill:#003F6D;" d="M1232.535,725.148c3.297,2.117,4.254,6.516,2.148,9.813c-2.129,3.305-6.52,4.258-9.816,2.145
			c-3.301-2.121-4.27-6.508-2.145-9.813C1224.84,723.992,1229.23,723.035,1232.535,725.148z"/>
		<path style="fill:#003F6D;" d="M1254.051,691.606c3.297,2.117,4.258,6.512,2.137,9.809c-2.117,3.305-6.512,4.262-9.813,2.144
			c-3.301-2.113-4.258-6.508-2.141-9.805C1246.352,690.453,1250.746,689.488,1254.051,691.606z"/>
		<path style="fill:#003F6D;" d="M1275.555,658.059c3.305,2.117,4.262,6.512,2.148,9.809c-2.125,3.305-6.512,4.262-9.813,2.145
			c-3.297-2.113-4.262-6.504-2.145-9.805C1267.867,656.906,1272.258,655.945,1275.555,658.059z"/>
		<path style="fill:#003F6D;" d="M1297.074,624.519c3.301,2.113,4.258,6.504,2.141,9.809c-2.121,3.305-6.512,4.262-9.809,2.145
			c-3.305-2.117-4.258-6.512-2.148-9.813C1289.379,623.363,1293.777,622.402,1297.074,624.519z"/>
		<path style="fill:#003F6D;" d="M1258.387,741.734c3.301,2.113,4.262,6.508,2.145,9.809c-2.113,3.301-6.512,4.262-9.805,2.144
			c-3.305-2.121-4.27-6.512-2.148-9.809C1250.691,740.578,1255.086,739.609,1258.387,741.734z"/>
		<path style="fill:#003F6D;" d="M1279.902,708.188c3.301,2.121,4.258,6.504,2.141,9.813c-2.117,3.301-6.508,4.258-9.805,2.144
			c-3.305-2.121-4.266-6.508-2.148-9.809C1272.207,707.027,1276.602,706.07,1279.902,708.188z"/>
		<path style="fill:#003F6D;" d="M1301.414,674.641c3.301,2.121,4.262,6.516,2.137,9.816c-2.109,3.297-6.504,4.258-9.805,2.137
			c-3.297-2.113-4.258-6.504-2.145-9.808C1293.719,673.488,1298.117,672.523,1301.414,674.641z"/>
		<path style="fill:#003F6D;" d="M1322.926,641.102c3.305,2.117,4.258,6.508,2.145,9.809c-2.113,3.305-6.504,4.262-9.813,2.144
			c-3.297-2.117-4.258-6.508-2.141-9.813C1315.238,639.945,1319.629,638.984,1322.926,641.102z"/>
	</g>
</g>
</svg>
